<svg width="790" height="778" viewBox="0 0 790 778" fill="none" xmlns="http://www.w3.org/2000/svg">
<path d="M171.08 737.751H139.78V774.821H93.89V737.751H0V723.751L108.48 575.491H139.78V698.251H171.08V737.751ZM93.89 698.251V652.061L61.08 698.251H93.89Z" fill="#151515"/>
<path d="M197.21 675.461C197.21 618.031 213.92 572.751 272.21 572.751C330.21 572.751 346.35 618.031 346.35 675.461C346.35 732.591 330.25 777.561 272.21 777.561C213.92 777.561 197.21 732.591 197.21 675.461ZM300.52 675.461C300.52 640.821 293.83 614.081 272.26 614.081C250.38 614.081 242.79 640.821 242.79 675.461C242.79 709.791 250.38 735.931 272.26 735.931C293.83 735.971 300.52 709.791 300.52 675.461Z" fill="#151515"/>
<path d="M535.1 737.751H503.8V774.821H457.92V737.751H364V723.751L472.5 575.491H503.8V698.251H535.1V737.751ZM457.92 698.251V652.061L425.1 698.251H457.92Z" fill="#151515"/>
<path d="M536.74 738.671H553.75V724.271H536.74V738.671Z" fill="#DE8E68"/>
<path d="M555.35 736.421V750.821H514.88V745.581L535.93 736.421H555.35Z" fill="black"/>
<path d="M272.34 562.021H289.35V547.621H272.34V562.021Z" fill="#DE8E68"/>
<path d="M290.95 559.771V574.171H250.49V568.941L271.54 559.771H290.95Z" fill="black"/>
<path d="M536.15 367.181C537.01 375.361 555.08 728.071 555.08 728.071H536.15L444.1 395.971L536.15 367.181Z" fill="#E1750D"/>
<path d="M545.87 328.321C545.87 376.221 528.26 419.321 492.61 419.321C443.67 419.321 378.88 388.121 361.05 370.511C356.6 383.671 293.48 549.431 293.48 549.431H267.34C267.34 549.431 284.09 356.431 315.49 306.931C325.82 293.171 410.12 296.611 452.71 306.931C495.3 317.251 545.87 328.321 545.87 328.321Z" fill="#FE840E"/>
<path d="M419.46 49.2313C419.757 47.7517 420.587 46.4328 421.793 45.5256C422.999 44.6183 424.496 44.1862 426 44.3113C429.83 44.5813 436.09 54.7013 436.09 62.8913C436.09 71.0813 433.78 74.1613 434.48 80.1113C435.18 86.0613 450.33 166.741 450.33 171.661C454.15 171.931 467.82 170.021 467.82 170.021L458.25 208.561H430.39L412.39 53.3313L419.46 49.2313Z" fill="#D37C59"/>
<path d="M446.18 62.9713L440.31 86.6913C440.31 86.6913 382.4 79.9613 376.08 78.4013C369.76 76.8413 379.28 37.6213 385.77 39.2213C392.26 40.8213 446.18 62.9713 446.18 62.9713Z" fill="#151515"/>
<path d="M499.24 133.141C573.32 133.141 555.05 324.531 546.4 331.691C537.75 338.851 445.65 314.691 438 304.031C430.35 293.371 444.91 133.141 499.24 133.141Z" fill="#FFD98E"/>
<path d="M472.8 181.731C468.73 183.111 444.86 192.421 444.86 192.421C444.46 187.621 426.11 92.4213 424.98 86.5913C427.296 80.7723 428.441 74.5536 428.35 68.2913C428.35 52.6613 422 39.9713 414.17 39.9713C406.34 39.9713 400 52.6613 400 68.2913C399.889 74.8333 401.149 81.3261 403.7 87.3513C402.82 99.2513 394.92 212.241 411.04 228.351C428.04 245.351 469.37 230.021 494.49 218.601C499.87 216.741 492.54 176.391 472.8 181.731Z" fill="#DE8E68"/>
<path d="M455.075 72.7697L440.094 68.792L437.314 79.2593L452.295 83.237L455.075 72.7697Z" fill="black"/>
<path d="M546.45 168.301C557.74 190.221 513.03 229.711 500.66 226.771C488.29 223.831 468.34 179.691 472.07 171.771C475.8 163.851 535.47 146.971 546.45 168.301Z" fill="#FFE3AD"/>
<path d="M503.78 151.691C503.78 155.401 481.15 156.341 481.15 151.691V108.971H503.78V151.691Z" fill="#D37C59"/>
<path d="M484.29 133.771C500.604 133.771 513.83 112.384 513.83 86.0013C513.83 59.6187 500.604 38.2313 484.29 38.2313C467.976 38.2313 454.75 59.6187 454.75 86.0013C454.75 112.384 467.976 133.771 484.29 133.771Z" fill="#DC8E6C"/>
<path d="M462.16 54.3513C461.935 57.7822 462.627 61.2113 464.165 64.2866C465.702 67.3619 468.03 69.9728 470.91 71.8513C479.72 77.8513 486 75.2013 492.46 80.8513C495.87 84.2613 504.22 90.8513 504.3 101.031C504.3 108.561 506.77 112.361 508.94 112.361C511.11 112.361 516.83 110.861 520.51 110.861C556.65 110.861 599.09 148.171 680.51 148.171C723.04 148.171 789.78 137.441 789.78 74.9813C789.78 41.2513 777.64 0.491318 713.47 0.491318C672.72 0.491318 644.17 20.4913 610.69 20.4913C567.69 20.4913 551.11 4.92132 521.4 4.92132C500.24 4.92132 452.62 17.1813 452.62 49.3013C452.62 61.5013 456.44 65.0413 457.62 65.6713C458 64.3313 460.33 57.4113 462.16 54.3513Z" fill="#FF8364"/>
<path d="M501.26 104.851C505.424 104.851 508.8 101.476 508.8 97.3113C508.8 93.1471 505.424 89.7713 501.26 89.7713C497.096 89.7713 493.72 93.1471 493.72 97.3113C493.72 101.476 497.096 104.851 501.26 104.851Z" fill="#DC8E6C"/>
</svg>
