<svg width="45" height="45" viewBox="0 0 45 45" fill="none" xmlns="http://www.w3.org/2000/svg">
<rect x="11.4126" y="9" width="22" height="28" fill="#FE840E"/>
<path id="outline" d="M32.4126 3H12.4126C11.3081 3 10.4126 3.89539 10.4126 5V41C10.4126 42.1045 11.308 43 12.4126 43H32.4126C33.5171 43 34.4126 42.1046 34.4126 41V5C34.4126 3.89539 33.5171 3 32.4126 3ZM33.0792 8.33336H17.746C17.3778 8.33336 17.0793 8.6318 17.0793 9C17.0793 9.3682 17.3778 9.66664 17.746 9.66664H33.0793V35.6666H31.0793C30.7111 35.6666 30.4127 35.9651 30.4127 36.3333C30.4127 36.7015 30.7111 36.9999 31.0793 36.9999H33.0793V40.9999C33.0793 41.3681 32.7809 41.6666 32.4127 41.6666H12.4126C12.0444 41.6666 11.746 41.3681 11.746 40.9999V36.9999H27.0793C27.4475 36.9999 27.746 36.7015 27.746 36.3333C27.746 35.9651 27.4475 35.6666 27.0793 35.6666H11.746V9.66664H13.746C14.1142 9.66664 14.4126 9.3682 14.4126 9C14.4126 8.6318 14.1142 8.33336 13.746 8.33336H11.746V5C11.746 4.6318 12.0444 4.33336 12.4126 4.33336H32.4126C32.7808 4.33336 33.0792 4.6318 33.0792 5V8.33336Z" fill="white" stroke="white"/>
<path d="M23.0791 38.9999H21.7457C21.3775 38.9999 21.079 39.2984 21.079 39.6666C21.079 40.0348 21.3775 40.3332 21.7457 40.3332H23.0791C23.4473 40.3332 23.7457 40.0348 23.7457 39.6666C23.7457 39.2984 23.4473 38.9999 23.0791 38.9999Z" fill="white" stroke="white"/>
</svg>
