<svg width="45" height="45" viewBox="0 0 45 45" fill="none" xmlns="http://www.w3.org/2000/svg">
<path d="M27.8698 3.80017H16.9962C16.9962 10.5356 11.536 11.7346 4.80017 11.7346V14.0233C4.80017 26.0159 11.6467 36.9569 22.4328 42.2C33.2192 36.9569 40.0657 26.0159 40.0657 14.0233V11.7346C33.33 11.7346 27.8698 10.5356 27.8698 3.80017Z" fill="#FE840E"/>
<path d="M22.4328 43.0001C22.3135 43.0001 22.1935 42.9731 22.0834 42.9195C11.0981 37.5796 4 26.2371 4 14.023V11.7346C4 11.293 4.3582 10.9348 4.80015 10.9348C13.0009 10.9348 16.1963 8.93428 16.1963 3.80015C16.1963 3.3582 16.5545 3 16.9961 3H27.8697C28.3113 3 28.6695 3.3582 28.6695 3.80015C28.6695 8.93428 31.865 10.9348 40.0657 10.9348C40.5077 10.9348 40.8659 11.293 40.8659 11.7346V14.023C40.8659 26.2371 33.7678 37.5796 22.7824 42.9195C22.6724 42.9731 22.5524 43.0001 22.4328 43.0001ZM5.59995 12.529V14.023C5.59995 25.4984 12.1946 36.1646 22.4328 41.3079C32.6713 36.1646 39.2656 25.4984 39.2656 14.023V12.529C33.3357 12.4408 27.5201 11.2694 27.0945 4.59995H17.7713C17.3458 11.2694 11.5301 12.4408 5.59995 12.529Z" fill="white" stroke="white"/>
<path d="M19.8959 29.1861C19.6912 29.1861 19.4864 29.1078 19.3302 28.9516L13.6321 23.2535C13.3197 22.9411 13.3197 22.4349 13.6321 22.1222C13.9445 21.8098 14.4507 21.8098 14.7635 22.1222L19.8959 27.2546L30.1023 17.0485C30.415 16.7358 30.9212 16.7358 31.2336 17.0485C31.5461 17.3609 31.5461 17.8671 31.2336 18.1795L20.4612 28.9516C20.305 29.1078 20.1003 29.1861 19.8959 29.1861Z" fill="white" stroke="white"/>
</svg>
