<svg width="25" height="20" viewBox="0 0 25 20" fill="none" xmlns="http://www.w3.org/2000/svg">
<path d="M22.7257 8.11174L22.7632 8.11997H6.65055L11.7158 3.04357C11.9638 2.79573 12.0999 2.45999 12.0999 2.10761C12.0999 1.75523 11.9638 1.42185 11.7158 1.17342L10.9276 0.384875C10.6798 0.137036 10.3495 0 9.99736 0C9.64499 0 9.31453 0.136057 9.06669 0.383896L0.383902 9.06591C0.135084 9.31472 -0.000973583 9.64615 5.24483e-06 9.99873C-0.000973583 10.3533 0.135084 10.6849 0.383902 10.9333L9.06669 19.6161C9.31453 19.8637 9.64479 20 9.99736 20C10.3495 20 10.6798 19.8636 10.9276 19.6161L11.7158 18.8276C11.9638 18.5801 12.0999 18.2497 12.0999 17.8973C12.0999 17.5451 11.9638 17.2321 11.7158 16.9844L6.59339 11.8796H22.7437C23.4694 11.8796 24.0792 11.2542 24.0792 10.5289V9.41358C24.0792 8.68827 23.4514 8.11174 22.7257 8.11174Z" fill="#151515"/>
</svg>
