<svg width="45" height="45" viewBox="0 0 45 45" fill="none" xmlns="http://www.w3.org/2000/svg">
<path d="M18.1313 7L13.9669 9.08223C12.827 9.65216 12.0668 10.7751 11.9609 12.0451L11.8019 13.9532C11.7101 15.055 12.5796 16 13.6852 16C13.9786 16 14.268 15.9317 14.5304 15.8005L14.8576 15.6369C15.6678 15.2318 16.6125 15.1925 17.4536 15.5289L17.7029 15.6286C18.2989 15.867 18.9638 15.867 19.5598 15.6286L19.632 15.5997C20.5376 15.2375 21.1313 14.3605 21.1313 13.3852C21.1313 12.0679 22.1992 11 23.5165 11H26.6627C28.7991 11 30.4792 9.17408 30.3018 7.04511L30.2346 6.23862C30.1705 5.46944 29.71 4.78933 29.0197 4.44415C28.4546 4.16164 27.7958 4.13424 27.2092 4.36885L26.7474 4.55358C26.031 4.84016 25.2317 4.84016 24.5153 4.55358C23.6434 4.2048 22.6585 4.28372 21.8532 4.76689L18.1313 7Z" fill="#FE840E"/>
<path d="M27.9907 3C27.0911 3 26.2695 3.34027 25.647 3.89813C25.0244 3.34027 24.2029 3 23.3032 3C21.6843 3 20.318 4.10046 19.9115 5.59216C19.5102 5.43256 19.0732 5.34375 18.6157 5.34375C16.9968 5.34375 15.6305 6.44421 15.224 7.93591C14.8227 7.77631 14.3857 7.6875 13.9282 7.6875C11.9897 7.6875 10.4126 9.26465 10.4126 11.2031V20.3016C10.4126 22.1968 10.8606 24.0944 11.7081 25.7896C12.3938 27.1611 12.7563 28.6964 12.7563 30.2296V41.8281C12.7563 42.4754 13.2809 43 13.9282 43H27.9907C28.638 43 29.1626 42.4754 29.1626 41.8281V27.9649L33.6533 21.2281C33.7814 21.0356 33.8501 20.8094 33.8501 20.5781V11.2031C33.8501 10.5558 33.3255 10.0312 32.6782 10.0312H31.5063V6.51562C31.5063 4.57715 29.9292 3 27.9907 3V3ZM27.9907 5.34375C28.6368 5.34375 29.1626 5.86957 29.1626 6.51562V10.0312H26.8188V6.51562C26.8188 5.86957 27.3447 5.34375 27.9907 5.34375ZM22.1313 6.51562C22.1313 5.86957 22.6572 5.34375 23.3032 5.34375C23.9493 5.34375 24.4751 5.86957 24.4751 6.51562V10.0312H22.1313C22.1313 8.93018 22.1313 7.61334 22.1313 6.51562ZM17.4438 8.85938C17.4438 8.21332 17.9697 7.6875 18.6157 7.6875C19.2618 7.6875 19.7876 8.21332 19.7876 8.85938V13.5469C19.7876 14.1929 19.2618 14.7188 18.6157 14.7188C17.9697 14.7188 17.4438 14.1929 17.4438 13.5469C17.4438 12.9799 17.4438 9.43036 17.4438 8.85938ZM13.9282 10.0312C14.5743 10.0312 15.1001 10.5571 15.1001 11.2031V13.5469C15.1001 14.1929 14.5743 14.7188 13.9282 14.7188C13.2822 14.7188 12.7563 14.1929 12.7563 13.5469V11.2031C12.7563 10.5571 13.2822 10.0312 13.9282 10.0312ZM31.5063 20.2235L27.0157 26.9603C26.8875 27.1528 26.8188 27.379 26.8188 27.6103V40.6562H22.1313V34.6406C22.1313 33.9933 21.6068 33.4688 20.9595 33.4688C20.3122 33.4688 19.7876 33.9933 19.7876 34.6406V40.6562H15.1001V30.2296C15.1001 28.3345 14.6521 26.4369 13.8046 24.7416C13.1189 23.3702 12.7563 21.8348 12.7563 20.3016V16.8611C13.1232 16.9911 13.5175 17.0625 13.9282 17.0625C14.8279 17.0625 15.6494 16.7222 16.272 16.1644C16.8945 16.7225 17.7161 17.0625 18.6157 17.0625C19.8651 17.0625 20.9634 16.407 21.5872 15.4222C22.3666 16.1723 23.3514 16.71 24.4492 16.9389C23.0151 18.5356 22.1313 20.7081 22.1313 22.9219C22.1313 23.5692 22.6559 24.0938 23.3032 24.0938C23.9505 24.0938 24.4751 23.5692 24.4751 22.9219C24.4751 20.5049 25.9592 18.0766 28.0035 17.1479C28.0676 17.1187 28.1268 17.0839 28.183 17.0454C28.7384 16.9536 29.1626 16.4723 29.1626 15.8906C29.1626 15.2433 28.638 14.7188 27.9907 14.7188H25.647C24.1193 14.7188 22.8159 13.7391 22.3322 12.375H31.5063V20.2235Z" fill="white"/>
</svg>
