<svg width="26" height="20" viewBox="0 0 26 20" fill="none" xmlns="http://www.w3.org/2000/svg">
<path d="M2.28813 8.11174L2.25054 8.11997H18.3632L13.298 3.04357C13.0499 2.79573 12.9139 2.45999 12.9139 2.10761C12.9139 1.75523 13.0499 1.42185 13.298 1.17342L14.0861 0.384875C14.334 0.137036 14.6642 0 15.0164 0C15.3688 0 15.6992 0.136057 15.9471 0.383896L24.6299 9.06591C24.8787 9.31472 25.0148 9.64615 25.0138 9.99873C25.0148 10.3533 24.8787 10.6849 24.6299 10.9333L15.9471 19.6161C15.6992 19.8637 15.369 20 15.0164 20C14.6642 20 14.334 19.8636 14.0861 19.6161L13.298 18.8276C13.0499 18.5801 12.9139 18.2497 12.9139 17.8973C12.9139 17.5451 13.0499 17.2321 13.298 16.9844L18.4204 11.8796H2.27011C1.54441 11.8796 0.934603 11.2542 0.934603 10.5289V9.41358C0.934603 8.68827 1.56242 8.11174 2.28813 8.11174Z" fill="#FE840E"/>
</svg>
