<svg width="45" height="45" viewBox="0 0 45 45" fill="none" xmlns="http://www.w3.org/2000/svg">

<circle cx="22" cy="24.5" r="16" fill="#FE840E"/>
<path d="M32.6125 6.81797L36.8552 10.356C37.1473 10.5997 37.5021 10.7186 37.855 10.7186C38.3026 10.7186 38.7468 10.5273 39.0559 10.1568C39.6085 9.49407 39.5193 8.50876 38.8565 7.9561L34.6138 4.41798C33.9512 3.86532 32.9659 3.95446 32.4131 4.61727C31.8605 5.28001 31.9497 6.26524 32.6125 6.81797Z" fill="white"/>
<path d="M6.14513 10.7185C6.49794 10.7185 6.85287 10.5996 7.14497 10.3559L11.3876 6.81792C12.0503 6.26527 12.1396 5.27996 11.5869 4.61722C11.0343 3.95456 10.049 3.86527 9.38622 4.41792L5.14357 7.95597C4.48083 8.50863 4.39154 9.49394 4.94419 10.1567C5.25333 10.5272 5.69755 10.7185 6.14513 10.7185Z" fill="white"/>
<path id="outline" d="M35.0373 11.5252C31.9259 8.41383 27.898 6.55266 23.5625 6.19117V4.5625C23.5625 3.69953 22.863 3 22 3C21.137 3 20.4375 3.69953 20.4375 4.5625V6.19117C16.102 6.55266 12.0741 8.41375 8.96273 11.5252C5.48031 15.0076 3.5625 19.6377 3.5625 24.5625C3.5625 29.4873 5.48031 34.1174 8.96273 37.5998C12.4451 41.0822 17.0752 43 22 43C25.9652 43 29.7436 41.7602 32.9269 39.4145C33.6216 38.9027 33.7698 37.9245 33.2579 37.2298C32.7459 36.5349 31.7677 36.3869 31.073 36.8987C28.4307 38.8459 25.2933 39.875 22 39.875C13.5566 39.875 6.6875 33.0059 6.6875 24.5625C6.6875 16.1191 13.5566 9.25 22 9.25C30.4434 9.25 37.3125 16.1191 37.3125 24.5625C37.3125 27.1414 36.6598 29.6905 35.4249 31.9341C35.0088 32.6901 35.2844 33.6402 36.0404 34.0563C36.7962 34.4723 37.7465 34.197 38.1627 33.4409C39.6509 30.7369 40.4375 27.6668 40.4375 24.5625C40.4375 19.6377 38.5197 15.0076 35.0373 11.5252Z" fill="white"/>
<path d="M29.612 15.1563C28.9414 14.6136 27.9575 14.7171 27.4145 15.388L22.4879 21.4759C22.3288 21.4508 22.1659 21.4375 22 21.4375C20.2769 21.4375 18.875 22.8394 18.875 24.5625C18.875 26.2856 20.2769 27.6875 22 27.6875C23.7231 27.6875 25.125 26.2856 25.125 24.5625C25.125 24.1678 25.0507 23.7903 24.9166 23.4424L29.8437 17.3538C30.3866 16.683 30.2829 15.6991 29.612 15.1563Z" fill="white"/>
</svg>
