<svg width="202" height="32" viewBox="0 0 202 32" fill="none" xmlns="http://www.w3.org/2000/svg">
<path d="M19.4221 25.1482H26.856L17.1785 1.67432H10.0124L0 25.1482H7.16607L8.5725 21.3978H18.0491L19.4221 25.1482ZM10.5147 16.3078L13.3945 8.63947L16.2074 16.3078H10.5147Z" fill="white"/>
<path d="M41.1926 6.66378C38.6477 6.66378 36.672 7.73534 35.3995 9.74452V6.93167H28.6352V25.1482H35.3995V16.1404C35.3995 14.0643 36.538 12.6243 38.3798 12.5909C39.9536 12.5909 40.9917 13.7294 40.9917 15.5377V25.1482H47.7559V13.5954C47.7559 9.37617 45.077 6.66378 41.1926 6.66378Z" fill="white"/>
<path d="M63.3517 0.301376V9.04131C62.1127 7.53442 60.3379 6.69726 58.1948 6.69726C53.2053 6.69726 49.9236 10.3473 49.9236 15.9395C49.9236 21.6656 53.2723 25.3826 58.3622 25.3826C60.4384 25.3826 62.1462 24.5455 63.3517 23.0721V25.1482H70.1159V0.301376H63.3517ZM60.07 20.1923C58.0608 20.1923 56.7549 18.5514 56.7549 16.1069C56.7549 13.6959 58.0608 12.0551 60.07 12.0551C62.0457 12.0551 63.3517 13.6959 63.3517 16.1069C63.3517 18.5514 62.0457 20.1923 60.07 20.1923Z" fill="white"/>
<path d="M85.2342 26.6886L92.8691 6.93167H86.1383L82.7562 18.0826L78.7713 6.93167H71.8397L79.3741 24.6459L79.0392 25.2822C78.6374 26.0858 77.9677 26.4542 77.0635 26.4542C76.1594 26.4542 75.4562 26.1528 74.619 25.4161L71.8062 29.9368C73.6144 31.3097 75.4227 31.9459 77.6663 31.9459C81.3163 31.9459 83.7943 30.2716 85.2342 26.6886Z" fill="white"/>
<path d="M103.004 0.5H102.504V1V24.4739V24.9739H103.004H119.077H119.577V24.4739V19.25V18.75H119.077H109.632V1V0.5H109.132H103.004ZM142.755 7.64264L142.313 7.84013L142.496 8.28811L144.137 12.3065L144.338 12.799L144.817 12.5677C146.712 11.6527 148.613 11.1775 150.024 11.1775C151.099 11.1775 151.833 11.4158 152.29 11.7829C152.667 12.0862 152.9 12.5142 152.959 13.0909L148.752 13.0908L148.745 13.0909C146.438 13.1253 144.582 13.6501 143.292 14.6773C141.984 15.7189 141.32 17.2285 141.32 19.0826C141.32 20.8604 141.943 22.4131 143.118 23.5195C144.292 24.6239 145.972 25.2418 148.015 25.2418C150.042 25.2418 151.722 24.7106 152.974 23.6658V24.4739V24.9739H153.474H159.334H159.834V24.4739L159.834 12.6867L159.834 12.6827C159.816 10.4817 159.029 8.69215 157.543 7.46267C156.069 6.24355 153.966 5.62341 151.397 5.62341C148.329 5.62341 145.647 6.34964 142.755 7.64264ZM169.799 7.82727V6.35781V5.85781H169.299H163.338H162.838V6.35781V24.4739V24.9739H163.338H169.299H169.799V24.4739V14.9261C169.909 14.0086 170.253 13.277 170.76 12.7736C171.267 12.27 171.968 11.9634 172.852 11.9477C173.67 11.9487 174.299 12.2235 174.726 12.6807C175.158 13.1421 175.429 13.839 175.429 14.7629V24.4739V24.9739H175.929H181.856H182.356V24.4739V13.0551C182.356 10.826 181.67 8.96073 180.418 7.64919C179.164 6.33553 177.385 5.62341 175.293 5.62341C173.052 5.62341 171.166 6.37915 169.799 7.82727ZM198.204 12.7596L198.435 12.3137L200 18.9152L200.5 18.9178C200.5 18.9174 200.5 18.917 200.5 18.9165C200.509 17.1964 199.857 15.9549 198.872 15.0484C197.906 14.1602 196.639 13.611 195.434 13.2049C194.855 13.01 194.278 12.8441 193.744 12.6908L193.669 12.669C193.109 12.508 192.606 12.362 192.18 12.2062C191.749 12.0482 191.44 11.8954 191.245 11.739C191.063 11.593 191.023 11.4814 191.023 11.3808C191.023 11.1779 191.102 11.049 191.265 10.9467C191.457 10.8272 191.778 10.7422 192.231 10.7422C193.582 10.7422 195.538 11.3668 197.759 12.5271L198.204 12.7596ZM130.278 5.65689C127.194 5.65689 124.595 6.61095 122.761 8.3286C120.925 10.0491 119.899 12.4972 119.899 15.3991C119.899 18.3169 120.924 20.7734 122.761 22.4985C124.594 24.2207 127.194 25.1748 130.278 25.1748C133.361 25.1748 135.969 24.2208 137.81 22.4993C139.655 20.7748 140.69 18.3182 140.69 15.3991C140.69 12.4959 139.655 10.0477 137.81 8.32778C135.968 6.61085 133.361 5.65689 130.278 5.65689ZM130.278 11.4789C131.313 11.4789 132.152 11.8738 132.739 12.5466C133.331 13.2253 133.696 14.2226 133.696 15.4661C133.696 16.7278 133.33 17.7335 132.738 18.4159C132.151 19.092 131.312 19.4867 130.278 19.4867C129.262 19.4867 128.431 19.0936 127.848 18.417C127.259 17.7342 126.893 16.7278 126.893 15.4661C126.893 14.2226 127.258 13.2246 127.847 12.5455C128.431 11.8722 129.262 11.4789 130.278 11.4789ZM149.857 20.19C149.169 20.19 148.685 20.0107 148.381 19.7523C148.086 19.5017 147.913 19.1366 147.913 18.6473C147.913 18.1315 148.074 17.8293 148.338 17.6344C148.631 17.4176 149.131 17.2721 149.924 17.2721H152.974V18.2763C152.652 19.3433 151.444 20.19 149.857 20.19Z" stroke="white"/>
</svg>
