<svg width="20" height="20" viewBox="0 0 20 20" fill="none" xmlns="http://www.w3.org/2000/svg">
<path d="M18.3167 8.38298C17.8705 8.38298 17.5088 8.7447 17.5088 9.19087V10.0046C17.5076 12.1272 16.6798 14.1222 15.1781 15.6222C13.6774 17.1211 11.6833 17.9465 9.56242 17.9465C9.56086 17.9465 9.55929 17.9465 9.55773 17.9465C5.17602 17.944 1.61328 14.3772 1.61578 9.99544C1.61699 7.8729 2.44473 5.87782 3.94652 4.37774C5.44719 2.87884 7.44137 2.05353 9.56219 2.05353C9.56375 2.05353 9.56531 2.05353 9.56687 2.05353C10.6869 2.05415 11.7735 2.28563 12.7966 2.74146C13.2042 2.9231 13.6817 2.73985 13.8633 2.33231C14.0449 1.92478 13.8618 1.4472 13.4542 1.26556C12.2231 0.717002 10.9155 0.438486 9.56777 0.437744C9.56574 0.437744 9.56418 0.437744 9.56215 0.437744C7.01023 0.437744 4.61031 1.43103 2.80461 3.23462C0.997501 5.03962 0.00148595 7.44036 1.5752e-06 9.99458C-0.00144374 12.5487 0.991759 14.9506 2.79684 16.7577C4.60191 18.5648 7.00262 19.5608 9.5568 19.5623C9.55879 19.5623 9.56039 19.5623 9.56242 19.5623C12.1143 19.5623 14.5143 18.5691 16.32 16.7654C18.1271 14.9604 19.1231 12.5597 19.1246 10.005V9.19091C19.1246 8.7447 18.7629 8.38298 18.3167 8.38298Z" fill="#151515"/>
<path d="M19.7634 1.55484C19.4479 1.23937 18.9363 1.23937 18.6208 1.55484L9.56227 10.6134L7.50723 8.55832C7.19176 8.24281 6.6802 8.24281 6.36473 8.55832C6.04922 8.87382 6.04922 9.38535 6.36473 9.70086L8.99106 12.3272C9.14879 12.485 9.35559 12.5638 9.56235 12.5638C9.7691 12.5638 9.97586 12.485 10.1336 12.3272L19.7634 2.69738C20.0789 2.38187 20.0789 1.87035 19.7634 1.55484Z" fill="#151515"/>
</svg>
